<svg xmlns="http://www.w3.org/2000/svg" xmlns:xlink="http://www.w3.org/1999/xlink" width="1920" height="542" viewBox="0 0 1920 542"><defs><clipPath id="a"><rect width="1920" height="542" transform="translate(0 2792)" fill="#fff"/></clipPath></defs><g transform="translate(0 -2792)" clip-path="url(#a)"><path d="M24,549.919c-6.281,3.14-9.421,9.421-15.7,12.562V487.112c119.333-65.947,345.439-47.105,668.895,65.947,373.7,125.614,615.509,163.3,781.948,157.018-53.386,40.825-119.333,59.667-188.421,53.386-163.3-21.982-326.6-56.526-483.614-109.912-169.579-53.386-339.158-119.333-533.86-138.176C174.739,509.095,86.809,509.095,24,553.06Zm1523.071,47.105c-12.561,21.982-25.123,40.825-40.824,59.667-191.561,0-458.491-69.088-841.614-207.263C278.37,308.112,105.651,336.375,30.282,383.481,24,389.762,14.581,392.9,8.3,399.183V326.955c128.754-72.228,354.86-50.246,675.176,65.947,445.93,160.158,700.3,210.4,860.456,204.123ZM1928.3,33.007V83.253c-43.965,25.123-84.789,128.754-125.614,229.246-21.983,56.526-47.105,116.193-72.228,172.719-25.123,50.246-47.105,94.211-69.088,128.754-28.263,53.386-78.509,91.07-138.176,100.491,47.105-40.824,100.491-113.053,166.438-251.228,25.123-53.386,50.246-113.053,72.228-169.579,53.386-135.035,97.351-238.667,163.3-260.649h3.14Zm0,169.579V309.358c-3.14,9.421-12.562,31.4-15.7,40.824-15.7,50.246-34.544,97.351-56.526,144.456,0,0-50.245,97.351-131.895,125.614,18.842-28.263,34.544-50.245,75.368-119.333a1529.9,1529.9,0,0,0,75.368-179c15.7-40.825,31.4-81.649,53.386-119.333h0Z" transform="translate(-8.301 2758.995)" fill="#fff" opacity="0.067"/></g></svg>