<?xml version="1.0" encoding="utf-8"?>
<!-- Generator: Adobe Illustrator 23.0.3, SVG Export Plug-In . SVG Version: 6.00 Build 0)  -->
<svg version="1.1" id="Layer_1" xmlns="http://www.w3.org/2000/svg" xmlns:xlink="http://www.w3.org/1999/xlink" x="0px" y="0px"
	 viewBox="0 0 21.3 21.3" style="enable-background:new 0 0 21.3 21.3;" xml:space="preserve">
<style type="text/css">
	.st0{fill:#FFFFFF;}
	.st1{fill:#008066;stroke:#008066;stroke-width:0.75;stroke-miterlimit:10;}
</style>
<path id="Path_54" class="st0" d="M9.5,11.9L6.7,9.2l-1.5,2.1l4.3,4.5l7.2-7.5L15,6.2L9.5,11.9z"/>
<circle class="st1" cx="10.8" cy="10.9" r="8.5"/>
<path id="checkmark3" class="st0" d="M16.2,8.5l-0.9-0.9c-0.2-0.2-0.4-0.2-0.6,0c0,0,0,0,0,0l-5.3,5.3L7,10.4
	c-0.2-0.2-0.4-0.2-0.6,0c0,0,0,0,0,0l-0.9,0.9c-0.2,0.2-0.2,0.4,0,0.6c0,0,0,0,0,0l3.7,3.7c0.2,0.2,0.4,0.2,0.6,0c0,0,0,0,0,0
	l6.4-6.4C16.4,9,16.4,8.7,16.2,8.5C16.2,8.5,16.2,8.5,16.2,8.5z"/>
</svg>
