<svg id="logo_10_" data-name="logo (10)" xmlns="http://www.w3.org/2000/svg" width="310.01" height="58.001" viewBox="0 0 310.01 58.001">
  <path id="Path_976" data-name="Path 976" d="M335.1,40.043a.9.9,0,0,1,1.792-.094c.094.472-.377.849-.849.943h0a.845.845,0,0,1-.849-.849h0m0,0a.709.709,0,1,0,.754-.66h0a.729.729,0,0,0-.754.66h0m1.226.472h-.189l-.283-.472h-.189v.472h-.189v-.943h.754a.329.329,0,0,1,.094.189.25.25,0,0,1-.283.283l.283.472h0Zm-.472-.566c.189,0,.377,0,.377-.189s-.094-.094-.283-.094h-.283v.283h.189Z" transform="translate(-26.894 -9.109)" fill="#012169" fill-rule="evenodd"/>
  <path id="Path_977" data-name="Path 977" d="M97.851,42.872a5.231,5.231,0,0,0-2.641-.66c-2.735,0-3.961,2.358-3.961,6.413s.66,5.942,3.678,5.942a6.272,6.272,0,0,0,3.207-.849l1.037,2.546a8.862,8.862,0,0,1-5.093,1.415c-5.093,0-6.979-3.4-6.979-9.148S88.515,39.1,94.645,39.1a7.444,7.444,0,0,1,4.244,1.226l-1.037,2.452h0Zm20.277,14.712V39.572h3.867V57.585h-3.867ZM135.67,42.872a5.231,5.231,0,0,0-2.641-.66c-2.735,0-3.961,2.358-3.961,6.413s.66,5.942,3.678,5.942a6.272,6.272,0,0,0,3.207-.849l1.037,2.546a8.862,8.862,0,0,1-5.093,1.415c-5.093,0-6.979-3.4-6.979-9.148s1.415-9.431,7.545-9.431a7.444,7.444,0,0,1,4.244,1.226l-1.037,2.452h0Zm12.26,10.751h-4.81c-.283,1.32-.66,2.641-1.037,3.961H138.31c1.7-6.036,3.3-11.977,4.9-18.013h4.81c1.6,6.036,3.207,11.977,4.716,18.013h-3.867l-.943-3.961Zm-2.452-10.563c-.283,1.6-.754,3.867-1.132,5.281l-.66,2.546h3.584l-1.132-5c-.189-1.037-.377-1.886-.566-2.829ZM161.416,54.85a3.589,3.589,0,0,0,1.7-.283V50.04h-2.075V47.494H166.6v8.771a9.725,9.725,0,0,1-5.376,1.6c-5.847,0-7.356-3.678-7.356-9.242,0-3.867,1.226-9.337,7.922-9.337a8.281,8.281,0,0,1,4.433,1.226l-1.037,2.546a7.424,7.424,0,0,0-2.829-.754c-3.207,0-4.338,2.452-4.338,6.507s.472,6.036,3.489,6.036h0Zm15,2.924c-5.659,0-7.356-3.867-7.356-9.242s1.792-9.337,7.356-9.337,7.262,4.527,7.262,9.337c0,5-1.981,9.242-7.262,9.242h0Zm0-15.844c-2.924,0-3.3,3.489-3.3,6.7s.66,6.413,3.207,6.413,3.207-2.546,3.207-6.413c0-3.4-.377-6.6-3.207-6.6h0Zm25.652,9.525h.189l4.055-11.883h4.527V57.585h-3.772V47.777h-.094l-3.4,9.808h-2.829l-3.4-9.714h-.094v9.714h-3.678V39.572H198.2l3.961,11.883Zm36.309-1.981,3.678,8.111h-4.244L234.6,50.04h-.849v7.545h-3.867V39.572h5.753c4.244,0,5.942,2.452,5.942,5.281a4.926,4.926,0,0,1-3.112,4.621h-.094ZM234.7,47.3c1.226,0,2.735-.377,2.735-2.452S236.3,42.4,234.7,42.4h-1.037v5H234.7Zm18.485,6.319h-4.81c-.283,1.32-.66,2.641-1.037,3.961h-3.772c1.7-6.036,3.3-11.977,4.9-18.013h4.81c1.6,6.036,3.207,11.977,4.716,18.013h-3.867l-.943-3.961Zm-2.358-10.563c-.283,1.6-.754,3.867-1.132,5.281l-.66,2.546h3.584l-1.132-5c-.189-1.037-.377-1.886-.566-2.829h-.094Zm10.94,14.524V42.4h-4.055V39.572h11.977V42.4h-4.055V57.585h-3.867Zm33.48.189c-5.659,0-7.356-3.867-7.356-9.242s1.792-9.337,7.356-9.337,7.262,4.527,7.262,9.337c0,5-1.981,9.242-7.262,9.242h0Zm0-15.844c-2.924,0-3.3,3.489-3.3,6.7s.66,6.413,3.207,6.413,3.207-2.546,3.207-6.413c0-3.4-.377-6.6-3.207-6.6h0Zm19.9,8.394V39.572h3.772V57.585h-3.772l-4.81-8.865a11.592,11.592,0,0,1-1.037-2.169H309.2V57.585h-3.772V39.572H309.2l2.735,4.81a43.9,43.9,0,0,1,3.018,5.942h.189Zm-94.876-7.262c-.283,1.6-.754,3.867-1.132,5.281l-.66,2.546h3.584l-1.132-5c-.189-1.037-.377-1.886-.566-2.829Zm2.358,10.563h-4.81c-.283,1.32-.66,2.641-1.037,3.961H213c1.7-6.036,3.3-11.977,4.9-18.013h4.81c1.6,6.036,3.207,11.977,4.716,18.013h-3.867l-.943-3.961h0ZM110.583,57.585V49.474H105.49v8.111h-3.961V39.572h3.961v7.168h5.093V39.572h3.961V57.585h-3.961Zm170.419,0V49.474h-5.093v8.111h-3.961V39.572h3.961v7.168H281V39.572h3.961V57.585H281Z" transform="translate(-12.784 -9.109)" fill="#012169"/>
  <g id="Group_2027" data-name="Group 2027" transform="translate(0 0.283)">
    <path id="Path_978" data-name="Path 978" d="M62.282,39.107c1.415-2.829,2.924-5.47,4.81-6.507V50.708L37.761,66.74,10.6,51.934c1.415-1.132,3.3-1.037,6.224-.377,10.186,2.263,19.617,4.621,26.218,6.036.66.094,1.226.189,1.792.283,7.451.849,10-2.546,13.486-9.9l.189-.472c1.226-2.452,2.452-5.659,3.772-8.3h0Z" transform="translate(-8.431 -9.022)" fill="#012169"/>
    <path id="Path_979" data-name="Path 979" d="M54.135,18.634l-.566,6.885,3.3-3.772L54.04,18.634Zm2.829,13.958L52.626,37.4l.66-8.865,3.584,4.055ZM54.229,17.22h1.792V13.542h.849V17.22h1.415V13.542h.849V17.22h1.792l-3.4,3.772-3.4-3.772Zm4.055,4.527,2.829-3.112.566,6.885-3.3-3.772Zm-.66,10.091-4.15-4.621,4.15-4.621,4.15,4.621ZM8.772,48.531c-.189.094-.283.283-.472.377V46.644c3.584-1.981,10.374-1.415,20.088,1.981,11.223,3.772,18.485,4.9,23.483,4.716a8.019,8.019,0,0,1-5.659,1.6,77.09,77.09,0,0,1-14.524-3.3c-5.093-1.6-10.186-3.584-16.033-4.15-2.358-.189-5-.189-6.885,1.132Zm45.74,1.415a12.011,12.011,0,0,1-1.226,1.792c-5.753,0-13.769-2.075-25.275-6.224-11.6-4.244-16.787-3.4-19.051-1.981-.189.189-.472.283-.66.472V41.835c3.867-2.169,10.657-1.509,20.277,1.981,13.392,4.81,21.031,6.319,25.841,6.13ZM66.961,34.007v1.509c-1.32.754-2.546,3.867-3.772,6.885-.66,1.7-1.415,3.489-2.169,5.187-.754,1.509-1.415,2.829-2.075,3.867a5.713,5.713,0,0,1-4.15,3.018c1.415-1.226,3.018-3.4,5-7.545.754-1.6,1.509-3.4,2.169-5.093,1.6-4.055,2.924-7.168,4.9-7.828h.094Zm0,5.093v3.207c-.094.283-.377.943-.472,1.226a34.483,34.483,0,0,1-1.7,4.338s-1.509,2.924-3.961,3.772c.566-.849,1.037-1.509,2.263-3.584a45.945,45.945,0,0,0,2.263-5.376,24.428,24.428,0,0,1,1.6-3.584h0ZM50.079,25.33l-3.772,5.753L42.535,25.33l3.772-5.753Zm5.564,22.54h0a15.353,15.353,0,0,1-2.924.283c-5.564,0-13.486-2.358-25.181-7.168C19.806,37.779,14.9,37.4,11.789,37.968a7.457,7.457,0,0,0-2.735,1.037c-.283.189-.472.377-.754.566V37.4a10.975,10.975,0,0,1,3.489-1.226h.472V29.2h8.2V28.16H16.222v-3.4H18.58v-3.3h5v3.3h2.358V36.459h1.509V28.537h1.6V19.2h4.433V18.163H31.406v-6.79h1.132V7.6h.754v3.772h1.132V7.6h.754v3.772H36.31v7.262h1.132v9.337H33.009v1.037H40.46V40.326h1.509V26.462l4.433,6.79,4.433-6.79v16.6h1.509l.283-3.678,5.093-5.753,3.112,3.489c-.66,1.415-1.32,2.924-1.981,4.338h0c-.66,1.6-1.981,4.527-1.981,4.527-.377.754-.754,1.415-1.037,2.075h0Zm6.7-13.864-1.132,1.981-2.924-3.3,3.584-4.055.472,5.376h0Z" transform="translate(-8.3 -7.6)" fill="#e31837"/>
  </g>
  <g id="Group_2029" data-name="Group 2029" transform="translate(75.825)">
    <path id="Path_980" data-name="Path 980" d="M296.3,28.842a1,1,0,0,1,.849-.943c.472-.094.849.377.943.849a1,1,0,0,1-.849.943h0a.845.845,0,0,1-.849-.849h0m.094,0a.709.709,0,1,0,.754-.66h0a.729.729,0,0,0-.754.66m1.132.566h-.189l-.283-.472h-.189v.472h-.189v-.943h.754a.329.329,0,0,1,.094.189.25.25,0,0,1-.283.283l.283.472Zm-.472-.566c.189,0,.377,0,.377-.189s-.094-.094-.283-.094h-.283v.283h.189Z" transform="translate(-100.512 -8.471)" fill="#e31837" fill-rule="evenodd"/>
    <g id="Group_2028" data-name="Group 2028" transform="translate(172.871)">
      <path id="Path_981" data-name="Path 981" d="M289.083,14.526c-.943-.472-1.886-.849-2.735-1.226a56.872,56.872,0,0,0-9.148,5.659c.849.472,1.7.943,2.641,1.509a59.306,59.306,0,0,1,9.242-5.942Z" transform="translate(-272.296 -7.641)" fill="#012169"/>
      <path id="Path_982" data-name="Path 982" d="M281.054,11.494c-3.112,1.509-6.13,3.207-9.054,5,.66.283,1.415.566,2.358,1.037a80.173,80.173,0,0,1,9.148-5.376c-.943-.283-1.886-.566-2.452-.754Z" transform="translate(-272 -7.533)" fill="#012169"/>
      <path id="Path_983" data-name="Path 983" d="M289.3,26.494c6.413-5.093,13.581-9.62,19.805-11.694,1.32.754,2.452,1.415,3.207,1.886A81.531,81.531,0,0,0,292.7,28.947c-1.037-.849-2.169-1.792-3.3-2.546Z" transform="translate(-272.984 -7.727)" fill="#e31837"/>
      <path id="Path_984" data-name="Path 984" d="M292.239,12.967a52.838,52.838,0,0,0-7.639-2.829c.754-.283,1.886-.754,2.641-1.037a46.781,46.781,0,0,1,7.733,2.641C294.22,12.024,293.088,12.589,292.239,12.967Z" transform="translate(-272.717 -7.402)" fill="#e31837"/>
      <path id="Path_985" data-name="Path 985" d="M290.1,8.054c.849-.283,2.075-.566,2.546-.754a53.334,53.334,0,0,1,7.733,2.641c-.754.189-1.7.472-2.546.754A46.779,46.779,0,0,0,290.1,8.054Z" transform="translate(-273.03 -7.3)" fill="#e31837"/>
      <path id="Path_986" data-name="Path 986" d="M302.805,11.494c1.037.566,1.886.943,2.924,1.415-6.979,2.169-13.392,6.036-19.805,11.034-.943-.66-1.981-1.415-2.924-1.981,8.488-6.6,15.655-9.431,19.805-10.563Z" transform="translate(-272.626 -7.533)" fill="#e31837"/>
    </g>
    <path id="Path_987" data-name="Path 987" d="M88.7,27.629h4.716c2.358,0,3.489-1.226,3.489-2.924a2.577,2.577,0,0,0-2.263-2.641,2.334,2.334,0,0,0,1.981-2.358c0-1.509-1.132-2.735-3.489-2.735H88.7V27.629Zm4.15-4.621a1.343,1.343,0,0,1,1.509,1.32c0,.849-.566,1.32-1.509,1.32H91.341V23.007Zm-.283-4.338c.849,0,1.509.377,1.509,1.226s-.566,1.226-1.509,1.226H91.341V18.575h1.226Zm13.864-1.886H103.79L99.734,27.534h2.641l.754-2.263H107l.754,2.263h2.735Zm-1.32,2.641,1.32,3.961h-2.546l1.32-3.961h-.094Zm18.862-2.641H121.52v7.168L116.9,16.783h-2.735V27.534h2.452V20.367l4.621,7.168h2.735Zm11.317,10.846-3.584-5.47v5.47h-2.641V16.877h2.641v5.187l3.4-5.187h2.924l-3.489,5.187,3.867,5.564h-3.112Zm12.26-5.47c0,2.169,1.32,3.489,3.018,3.489s3.018-1.32,3.018-3.489-1.32-3.489-3.018-3.489S147.55,19.989,147.55,22.159Zm-2.735,0a5.754,5.754,0,1,1,5.659,5.659A5.718,5.718,0,0,1,144.815,22.159Zm15.09,5.47h2.641V23.385h3.4V21.31h-3.4V18.952h4.15l.472-2.075H160V27.629Zm19.428-10.846h-2.641l-4.055,10.751h2.641l.754-2.263H179.9l.754,2.263h2.735Zm-1.32,2.641,1.32,3.961h-2.546l1.32-3.961Zm20.937-2.641h-3.018L193.1,22.63l-2.829-5.847h-3.018V27.534h2.358V20.367l3.489,7.168,3.489-7.168v7.168h2.452V16.783Zm5.093,10.846H211.4V25.554h-4.716V23.2h3.772V21.216h-3.772V18.952h4.338l.472-2.075h-7.451V27.629Zm17.353,0h2.829L221.489,23.1a2.847,2.847,0,0,0,2.169-2.924c0-1.981-1.132-3.207-3.772-3.207h-4.15V27.723h2.546V23.479h.66l2.358,4.244h0Zm-1.981-8.865c1.037,0,1.6.472,1.6,1.415s-.566,1.415-1.6,1.415h-1.132V18.858h1.132Zm8.771,8.865h2.641V16.877h-2.641ZM243.652,24.7a5.082,5.082,0,0,1-2.829.943,3.328,3.328,0,0,1-3.4-3.112v-.377a3.186,3.186,0,0,1,3.018-3.4h.377a4.789,4.789,0,0,1,2.735.943V17.254a5.66,5.66,0,0,0-3.018-.66,5.5,5.5,0,0,0-5.847,5.187v.472a5.478,5.478,0,0,0,5.281,5.659h.566a7.519,7.519,0,0,0,3.207-.66V24.8Zm9.62-7.922h-2.641l-4.055,10.751h2.641l.754-2.263h3.867l.754,2.263h2.735Zm-1.32,2.641,1.32,3.961h-2.546l1.32-3.961Z" transform="translate(-88.7 -7.823)" fill="#012169"/>
  </g>
</svg>
