<svg version="1.1" id="brand-logo" xmlns="http://www.w3.org/2000/svg" xmlns:xlink="http://www.w3.org/1999/xlink" x="0px" y="0px" width="101.835px" height="101.807px" viewBox="0 0 101.835 101.807" enable-background="new 0 0 101.835 101.807" xml:space="preserve">
                            <g>
                            <polygon fill="#008066" points="4.5,54.961 8.809,59.271 12.561,55.519 23.147,66.106 27.789,61.461 17.205,50.876 20.956,47.126 
                                16.647,42.815 	"></polygon>
                            
                                <rect x="17.184" y="43.357" transform="matrix(-0.7071 -0.7071 0.7071 -0.7071 14.3339 99.2185)" fill="#008066" width="21.064" height="6.568"></rect>
                            <polygon fill="#008066" points="43.55,45.701 37.919,40.07 45.406,43.845 48.872,40.38 45.044,32.564 50.866,38.385 55.51,33.741 
                                40.615,18.847 34.762,24.7 39.203,34.033 29.885,29.576 24.012,35.45 38.907,50.345 	"></polygon>
                            <polygon fill="#008066" points="52.966,6.497 41.986,17.477 56.88,32.372 67.894,21.356 63.473,16.936 57.102,23.307 
                                56.175,22.379 62.474,16.083 58.052,11.661 51.755,17.958 51.05,17.253 57.387,10.918 	"></polygon>
                            <polygon fill="#008066" points="45.723,65.683 38.527,72.881 41.311,61.27 36.159,56.118 21.266,71.014 25.909,75.658 
                                32.879,68.688 30.172,79.922 35.472,85.221 50.367,70.325 	"></polygon>
                            <g>
                                <path fill="#008066" d="M55.262,51.103c0.987,0.987,1.525,2.134,1.557,3.313c0.032,1.178-0.456,2.305-1.41,3.259
                                    c-0.922,0.924-2.013,1.412-3.151,1.412h-0.002c-1.198,0-2.414-0.553-3.419-1.558c-0.987-0.989-1.526-2.134-1.558-3.313
                                    c-0.032-1.179,0.456-2.307,1.41-3.261c0.924-0.924,2.013-1.412,3.151-1.412C53.039,49.543,54.255,50.098,55.262,51.103
                                    M44.267,46.533c-4.692,4.692-4.767,11.168-0.186,15.751c2.219,2.217,4.882,3.39,7.702,3.39c2.883,0,5.74-1.269,8.047-3.576
                                    c4.692-4.692,4.769-11.168,0.186-15.749c-2.219-2.219-4.883-3.393-7.702-3.393C49.43,42.956,46.573,44.228,44.267,46.533"></path>
                            </g>
                            <polygon fill="#008066" points="82.536,38.722 67.641,23.827 62.998,28.471 69.968,35.441 58.734,32.735 53.433,38.035 
                                68.329,52.93 72.972,48.286 65.773,41.088 77.386,43.873 	"></polygon>
                            <polygon fill="#008066" points="69.003,22.467 83.897,37.362 94.91,26.348 90.49,21.926 84.12,28.297 83.193,27.369 89.562,20.999 
                                85.141,16.577 78.772,22.947 78.067,22.243 84.436,15.874 80.016,11.452 	"></polygon>
                            <g>
                                <path fill="#008066" d="M55.785,89.308c-0.924,0.924-2.014,1.412-3.153,1.412c-1.2,0-2.414-0.553-3.421-1.56
                                    c-0.987-0.987-1.526-2.134-1.558-3.313c-0.032-1.179,0.456-2.307,1.41-3.261c0.922-0.922,2.013-1.41,3.153-1.41
                                    c1.2,0,2.414,0.553,3.421,1.56C57.647,84.746,57.707,87.386,55.785,89.308 M52.689,74.589c-2.882,0-5.74,1.269-8.047,3.578
                                    c-2.237,2.235-3.506,5.007-3.574,7.802c-0.071,2.91,1.101,5.659,3.389,7.947c2.219,2.217,4.883,3.391,7.702,3.391
                                    c2.883,0,5.74-1.271,8.048-3.578c4.69-4.692,4.767-11.167,0.185-15.749C58.173,75.761,55.509,74.589,52.689,74.589"></path>
                            </g>
                            <polygon fill="#008066" points="63.422,60.087 70.392,67.057 59.157,64.351 53.857,69.651 68.753,84.546 73.397,79.903 
                                66.198,72.702 77.81,75.488 82.96,70.338 68.066,55.443 	"></polygon>
                            <polygon fill="#008066" points="69.426,54.081 84.321,68.977 95.335,57.964 90.914,53.543 84.543,59.913 83.616,58.985 
                                89.985,52.614 85.565,48.193 79.197,54.564 78.492,53.859 84.86,47.489 80.44,43.067 	"></polygon>
                        </g>
                        </svg>